<svg width="1920" height="540" viewBox="0 0 1920 540" fill="none" xmlns="http://www.w3.org/2000/svg">
<g clip-path="url(#clip0_8532_19717)">
<rect width="1920" height="540" fill="#CFE5FF"/>
<path d="M416.172 251.102C421.562 251.102 425.664 254.461 425.664 259.227C425.664 263.914 421.562 267.312 416.172 267.312C410.664 267.312 406.602 263.914 406.602 259.227C406.602 254.461 410.664 251.102 416.172 251.102ZM416.172 255.164C413.438 255.164 411.406 256.648 411.445 259.227C411.406 261.766 413.438 263.289 416.172 263.289C418.867 263.289 420.859 261.766 420.859 259.227C420.859 256.648 418.867 255.164 416.172 255.164ZM435.82 250.047V267.859H430.82V250.047H435.82ZM435.82 269.344V278.992H416.914V281.297H436.797V285.203H412.031V275.359H430.859V273.172H411.953V269.344H435.82ZM453.594 255.633C453.594 259.93 456.094 264.07 461.719 265.828L459.062 269.695C455.293 268.445 452.656 266.023 451.133 262.898C449.59 266.492 446.836 269.305 442.773 270.672L440.078 266.766C446.016 264.773 448.555 260.047 448.594 255.164V251.922H453.594V255.633ZM468.828 250.047V258.367H473.633V262.508H468.828V271.141H463.828V250.047H468.828ZM457.188 271.844C464.531 271.844 469.18 274.383 469.18 278.719C469.18 283.094 464.531 285.594 457.188 285.594C449.688 285.594 445 283.094 445 278.719C445 274.383 449.688 271.844 457.188 271.844ZM457.188 275.75C452.5 275.75 449.961 276.766 450 278.719C449.961 280.75 452.5 281.688 457.188 281.688C461.797 281.688 464.258 280.75 464.258 278.719C464.258 276.766 461.797 275.75 457.188 275.75ZM486.719 252.43C492.344 252.391 496.562 256.062 496.562 261.141C496.562 266.258 492.344 269.891 486.719 269.891C481.094 269.891 476.836 266.258 476.836 261.141C476.836 256.062 481.094 252.391 486.719 252.43ZM486.719 256.727C483.906 256.727 481.758 258.367 481.797 261.141C481.758 263.953 483.906 265.555 486.719 265.555C489.531 265.555 491.68 263.953 491.719 261.141C491.68 258.367 489.57 256.727 486.719 256.727ZM505.078 250.047V285.672H500.117V250.047H505.078ZM475.352 274.344C481.68 274.383 490.469 274.266 498.086 273.211L498.477 276.805C490.586 278.328 482.148 278.406 475.938 278.406L475.352 274.344ZM551.523 277.352V281.453H518.984V277.352H532.695V270.086H522.422V252.664H547.891V270.086H537.656V277.352H551.523ZM527.344 256.648V266.18H542.969V256.648H527.344ZM586.055 267.586V271.57H553.555V267.586H586.055ZM582.5 260.711V264.695H557.5V251.336H582.148V255.32H562.461V260.711H582.5ZM582.695 280.945V284.93H557.461V274.344H562.383V280.945H582.695ZM629.766 264.148V268.094H616.016V270.359H625.82V279.461H606.016V281.609H626.758V285.359H601.133V275.945H620.898V274.109H601.094V270.359H611.016V268.094H597.344V264.148H629.766ZM625.664 251.062V262.273H601.367V251.062H625.664ZM606.25 254.93V258.445H620.703V254.93H606.25ZM661.875 250.086V276.062H656.914V264.461H650.547V260.359H656.914V250.086H661.875ZM650.859 252.703C650.859 262.234 644.805 269.266 634.414 272.508L632.383 268.562C639.746 266.258 644.492 262.02 645.43 256.766H634.219V252.703H650.859ZM662.773 280.984V284.969H638.438V273.445H643.516V280.984H662.773ZM682.695 250.555C690.859 250.555 695.586 252.703 695.625 256.609C695.586 260.555 690.859 262.703 682.695 262.703C674.492 262.703 669.727 260.555 669.727 256.609C669.727 252.703 674.492 250.555 682.695 250.555ZM682.695 254.188C677.461 254.188 674.922 255.047 674.961 256.609C674.922 258.367 677.461 259.031 682.695 259.031C687.969 259.031 690.469 258.367 690.469 256.609C690.469 255.047 687.969 254.188 682.695 254.188ZM698.906 264.383V268.328H666.484V264.383H698.906ZM694.961 270.398V279.461H675.156V281.609H695.898V285.359H670.273V275.984H690.039V274.031H670.234V270.398H694.961ZM436.016 306.047V341.594H431.055V323.781H423.984V319.719H431.055V306.047H436.016ZM424.18 309.758C424.18 320.5 420.703 329.25 408.281 335.422L405.703 331.516C414.688 327.082 418.398 321.438 419.18 313.664H407.383V309.758H424.18ZM455.117 309.484V323.195H446.406V329.562C449.785 329.523 453.008 329.387 456.641 328.82L456.992 332.805C452.344 333.586 448.516 333.703 444.102 333.703H441.641V319.211H450.312V313.508H441.602V309.484H455.117ZM471.367 306.047V341.594H466.641V323.508H463.203V339.875H458.633V306.633H463.203V319.484H466.641V306.047H471.367ZM492.344 311.477V315.422H475.156V311.477H481.328V307.023H486.25V311.477H492.344ZM483.828 317.023C488.359 317.023 491.602 320.539 491.641 325.461C491.602 330.422 488.359 333.938 483.828 333.938C479.297 333.938 475.977 330.422 475.977 325.461C475.977 320.539 479.297 317.023 483.828 317.023ZM483.828 321.164C481.758 321.164 480.352 322.766 480.352 325.461C480.352 328.156 481.758 329.719 483.828 329.719C485.82 329.719 487.227 328.156 487.266 325.461C487.227 322.766 485.82 321.164 483.828 321.164ZM505.938 306.047V341.594H501.211V324.484H498.32V340.07H493.672V306.75H498.32V320.5H501.211V306.047H505.938ZM551.523 333.391V337.453H518.984V333.391H532.695V326.828H522.422V308.312H527.422V313.82H542.93V308.312H547.891V326.828H537.656V333.391H551.523ZM527.422 322.844H542.93V317.805H527.422V322.844ZM564.961 314.992C564.961 320.734 566.562 326.672 571.406 329.797L568.711 333.664C565.645 331.809 563.691 328.762 562.578 325.109C561.289 329.133 559.16 332.492 555.938 334.445L552.891 330.773C558.164 327.492 560.117 321.242 560.117 315.227V309.094H564.961V314.992ZM584.375 306.047V341.594H579.609V306.047H584.375ZM576.914 306.555V339.953H572.266V322.102H567.656V318.039H572.266V306.555H576.914ZM620.664 333.352V337.453H588.125V333.352H595.391V324.641C592.637 323 590.977 320.48 590.977 317.336C590.977 311.594 596.602 307.766 604.336 307.766C612.031 307.766 617.695 311.594 617.734 317.336C617.715 320.402 616.094 322.902 613.438 324.562V333.352H620.664ZM604.336 311.711C599.258 311.711 595.898 313.742 595.898 317.336C595.898 320.812 599.258 322.961 604.336 322.961C609.375 322.961 612.773 320.812 612.812 317.336C612.773 313.742 609.375 311.711 604.336 311.711ZM600.312 333.352H608.398V326.438C607.129 326.691 605.762 326.828 604.336 326.828C602.91 326.828 601.562 326.711 600.312 326.438V333.352Z" fill="#374151"/>
<rect x="405" y="384" width="357" height="56" rx="28" fill="#3692FF"/>
<path d="M543.979 404.156V405.738C543.979 407.389 543.979 409.195 543.51 411.695H545.951V413.453H538.939V420.758H536.752V413.453H529.857V411.695H541.303C541.791 409.293 541.811 407.496 541.811 405.914H531.752V404.156H543.979ZM561.928 403.102V413.414H559.76V411.461H555.561V409.703H559.76V407.809H555.736C554.613 410.621 552.045 412.584 548.197 413.648L547.318 411.93C551.449 410.807 553.646 408.717 553.998 406.09H548.256V404.332H556.361C556.361 404.947 556.312 405.533 556.205 406.09H559.76V403.102H561.928ZM556.088 413.609C559.662 413.609 562.045 414.957 562.045 417.125C562.045 419.293 559.662 420.641 556.088 420.641C552.475 420.641 550.092 419.293 550.092 417.125C550.092 414.957 552.475 413.609 556.088 413.609ZM556.088 415.309C553.705 415.309 552.26 415.953 552.26 417.125C552.26 418.277 553.705 418.922 556.088 418.922C558.412 418.922 559.877 418.277 559.877 417.125C559.877 415.953 558.412 415.309 556.088 415.309ZM578.256 403.082V410.113H580.971V411.91H578.256V420.738H576.107V403.082H578.256ZM574.74 405.797V407.535H564.33V405.797H568.51V403.336H570.678V405.797H574.74ZM569.604 408.688C572.143 408.688 574.037 410.406 574.037 412.848C574.037 415.289 572.143 416.988 569.604 416.988C567.025 416.988 565.131 415.289 565.15 412.848C565.131 410.406 567.025 408.688 569.604 408.688ZM569.604 410.465C568.217 410.465 567.221 411.402 567.221 412.848C567.221 414.293 568.217 415.211 569.604 415.191C570.951 415.211 571.947 414.293 571.967 412.848C571.947 411.402 570.951 410.465 569.604 410.465ZM596.498 403.082V420.758H594.33V411.363H591.303V409.586H594.33V403.082H596.498ZM590.287 404.625V411.09H584.506V414.801C587.123 414.791 589.242 414.703 591.615 414.273L591.791 416.051C589.154 416.52 586.811 416.617 583.764 416.617H582.357V409.332H588.158V406.383H582.299V404.625H590.287ZM617.572 403.082V409.977H620.189V411.793H617.572V420.699H615.404V403.082H617.572ZM612.904 404.918C612.904 410.113 610.756 414.664 604.877 417.555L603.646 415.875C607.943 413.736 610.268 410.729 610.717 406.715H604.604V404.918H612.904ZM635.775 403.082V420.738H633.588V403.082H635.775ZM630.502 404.957C630.502 410.211 628.471 414.684 622.279 417.613L621.146 415.875C625.766 413.678 627.914 410.689 628.295 406.676H622.045V404.957H630.502Z" fill="#F9FAFB"/>
<g clip-path="url(#clip1_8532_19717)">
<rect width="102.494" height="189.553" rx="8" transform="matrix(0.967453 -0.25305 0.24992 0.968267 827.375 294.041)" fill="#FFE7D1"/>
<path d="M943.537 360.438C942.432 356.16 945.002 351.786 949.277 350.667L991.373 339.657C995.648 338.539 1000.01 341.1 1001.11 345.378L1025.08 438.256L967.509 453.316L943.537 360.438Z" fill="#FFE7D1"/>
<path d="M789.076 387.089C787.972 382.811 790.542 378.437 794.816 377.318L844.109 364.425C848.384 363.307 852.744 365.869 853.848 370.147L881.145 475.905L816.373 492.847L789.076 387.089Z" fill="#FFE7D1"/>
<rect width="16.5313" height="19.1216" rx="4" transform="matrix(0.967453 -0.25305 0.24992 0.968267 849.122 305.538)" fill="#F5C498"/>
<rect width="16.5313" height="19.1216" rx="4" transform="matrix(0.967453 -0.25305 0.24992 0.968267 873.113 299.263)" fill="#F5C498"/>
<rect width="16.5313" height="19.1216" rx="4" transform="matrix(0.967453 -0.25305 0.24992 0.968267 897.103 292.988)" fill="#F5C498"/>
<rect width="16.5313" height="19.1216" rx="4" transform="matrix(0.967453 -0.25305 0.24992 0.968267 856.394 333.713)" fill="#F5C498"/>
<rect width="16.5313" height="19.1216" rx="4" transform="matrix(0.967453 -0.25305 0.24992 0.968267 880.384 327.437)" fill="#F5C498"/>
<rect width="16.5313" height="19.1216" rx="4" transform="matrix(0.967453 -0.25305 0.24992 0.968267 802.39 387.528)" fill="#F5C498"/>
<rect width="16.5313" height="19.1216" rx="4" transform="matrix(0.967453 -0.25305 0.24992 0.968267 826.38 381.254)" fill="#F5C498"/>
<rect width="16.5313" height="19.1216" rx="4" transform="matrix(0.967453 -0.25305 0.24992 0.968267 953.449 362.465)" fill="#F5C498"/>
<rect width="16.5313" height="19.1216" rx="4" transform="matrix(0.967453 -0.25305 0.24992 0.968267 977.439 356.191)" fill="#F5C498"/>
<rect width="16.5313" height="19.1216" rx="4" transform="matrix(0.967453 -0.25305 0.24992 0.968267 904.375 321.164)" fill="#F5C498"/>
<ellipse cx="1142" cy="549.862" rx="373" ry="146.383" fill="#D7A37E"/>
<ellipse cx="1142" cy="549.862" rx="373" ry="146.383" fill="url(#paint0_linear_8532_19717)"/>
<path d="M1085.94 350.284C1088.93 367.09 1108.59 369.137 1118.58 368.598L1141.59 401.456C1141.23 405.047 1129.13 420.524 1084.61 404.149C1033.77 385.452 1041.58 340.281 1055.44 334.124C1073.63 326.045 1082.19 329.276 1085.94 350.284Z" fill="#222327"/>
<path d="M1253.25 317.253C1253.25 359.694 1212.35 375.47 1156.56 375.47C1100.76 375.47 1060.79 359.694 1060.79 317.253C1060.79 267.885 1100.76 224.105 1156.56 224.105C1212.35 224.105 1253.25 264.159 1253.25 317.253Z" fill="white"/>
<path d="M1105.74 424.82C1105.74 406.733 1112.25 379.442 1118.04 368.058H1198.84C1204.47 378.16 1209.94 403.655 1209.53 424.82C1209.02 451.277 1181.92 453.201 1156.87 454.163C1131.81 455.125 1105.74 447.429 1105.74 424.82Z" fill="white"/>
<path d="M1115.7 459.427C1110.55 449.935 1105.74 444.548 1105.74 421.386L1139.91 431.34C1145.3 431.251 1156.38 433.214 1157.54 441.774C1158.99 452.475 1154.12 465.718 1151.79 467.299C1149.92 468.563 1143.48 468.284 1140.49 467.986L1129.03 465.808C1124.83 467.742 1120.34 467.999 1115.7 459.427Z" fill="white"/>
<path d="M1199.5 459.427C1204.64 449.935 1209.46 444.548 1209.46 421.386L1175.28 431.34C1169.89 431.251 1158.82 433.214 1157.66 441.774C1156.21 452.475 1161.08 465.718 1163.41 467.299C1165.28 468.563 1171.71 468.284 1174.7 467.986L1186.16 465.808C1190.37 467.742 1194.85 467.999 1199.5 459.427Z" fill="white"/>
<path d="M1118.32 372.368L1115.11 371.83L1112.43 378.832L1112.97 382.603L1118.32 372.368Z" fill="#222327"/>
<path d="M1152.82 466.542C1152.82 471.363 1148.61 473.635 1135.49 473.635C1122.37 473.635 1114.3 471.909 1114.3 467.088C1114.3 462.267 1115.15 456.937 1133.03 456.937C1146.15 456.937 1152.82 461.721 1152.82 466.542Z" fill="white"/>
<path d="M1163.53 466.542C1163.53 471.363 1167.74 473.635 1180.86 473.635C1193.98 473.635 1202.05 471.909 1202.05 467.088C1202.05 462.267 1201.2 456.937 1183.32 456.937C1170.2 456.937 1163.53 461.721 1163.53 466.542Z" fill="white"/>
<rect width="38.5609" height="49.3747" rx="19.2804" transform="matrix(0.92957 -0.368645 0.364428 0.931231 1182.19 375.224)" fill="#222327"/>
<path d="M1153.87 226.117C1157.43 238.468 1148.02 252.078 1137.22 255.234C1126.42 258.389 1111.67 251.844 1108.11 239.493C1104.55 227.142 1112.02 210.029 1122.82 206.873C1137.22 202.665 1150.31 213.766 1153.87 226.117Z" fill="#222327"/>
<path d="M1159.81 226.117C1156.24 238.468 1165.66 252.078 1176.46 255.234C1187.26 258.389 1202.01 251.844 1205.57 239.493C1209.13 227.142 1201.65 210.029 1190.86 206.873C1176.46 202.665 1163.37 213.766 1159.81 226.117Z" fill="#222327"/>
<path d="M1225.49 316.537C1225.49 347.617 1195.41 359.17 1154.37 359.17C1113.33 359.17 1083.92 347.617 1083.92 316.537C1083.92 280.384 1113.33 248.324 1154.37 248.324C1195.41 248.324 1225.49 277.656 1225.49 316.537Z" fill="#F3D6DD"/>
<path d="M1140.22 310.146C1140.22 320.435 1133.64 331.722 1124.44 331.722C1115.24 331.722 1100.38 323.338 1100.38 307.969C1100.38 293.531 1116.44 288.396 1133.02 291.033C1143.19 292.649 1140.22 299.857 1140.22 310.146Z" fill="#222327"/>
<path d="M1132.53 309.105C1132.53 310.649 1132.06 311.9 1129.75 311.9C1127.44 311.9 1126.98 310.649 1126.98 309.105C1126.98 307.562 1127.9 306.311 1129.75 306.311C1131.6 306.311 1132.53 307.562 1132.53 309.105Z" fill="white"/>
<path d="M1168.21 310.145C1168.21 320.434 1174.79 331.721 1183.99 331.721C1193.19 331.721 1208.05 323.338 1208.05 307.969C1208.05 293.531 1191.99 288.396 1175.41 291.032C1165.24 292.648 1168.21 299.857 1168.21 310.145Z" fill="#222327"/>
<path d="M1175.9 309.105C1175.9 310.649 1176.37 311.9 1178.68 311.9C1180.99 311.9 1181.46 310.649 1181.46 309.105C1181.46 307.562 1180.53 306.311 1178.68 306.311C1176.83 306.311 1175.9 307.562 1175.9 309.105Z" fill="white"/>
<path d="M1143.73 324.949C1143.12 324.063 1141.91 323.835 1141.03 324.44C1140.14 325.045 1139.91 326.254 1140.52 327.14L1143.73 324.949ZM1153.89 322.812L1155.73 322.185C1155.46 321.398 1154.72 320.87 1153.89 320.87C1153.06 320.87 1152.32 321.398 1152.05 322.185L1153.89 322.812ZM1167.27 327.14C1167.87 326.254 1167.65 325.045 1166.76 324.44C1165.87 323.835 1164.67 324.063 1164.06 324.949L1167.27 327.14ZM1140.52 327.14C1141.02 327.881 1141.94 328.867 1143.16 329.682C1144.4 330.504 1146.05 331.219 1148.01 331.219V327.333C1147.02 327.333 1146.1 326.971 1145.31 326.447C1144.51 325.915 1143.96 325.285 1143.73 324.949L1140.52 327.14ZM1148.01 331.219C1150.44 331.219 1152.23 329.48 1153.33 328.019C1154.49 326.47 1155.32 324.659 1155.73 323.44L1152.05 322.185C1151.73 323.12 1151.08 324.541 1150.22 325.685C1149.3 326.918 1148.52 327.333 1148.01 327.333V331.219ZM1152.05 323.44C1152.47 324.659 1153.29 326.47 1154.45 328.019C1155.55 329.48 1157.34 331.219 1159.78 331.219V327.333C1159.27 327.333 1158.49 326.918 1157.56 325.685C1156.7 324.541 1156.05 323.12 1155.73 322.185L1152.05 323.44ZM1159.78 331.219C1161.73 331.219 1163.39 330.504 1164.63 329.682C1165.85 328.867 1166.76 327.881 1167.27 327.14L1164.06 324.949C1163.83 325.285 1163.27 325.915 1162.47 326.447C1161.69 326.971 1160.77 327.333 1159.78 327.333V331.219Z" fill="#222327"/>
<path d="M1163.69 321.151C1163.69 322.635 1157.09 324.52 1154.77 325.137C1154.25 325.277 1153.71 325.277 1153.18 325.137C1150.86 324.52 1144.26 322.635 1144.26 321.151C1144.26 319.351 1149.63 317.425 1153.98 317.425C1158.32 317.425 1163.69 319.351 1163.69 321.151Z" fill="#222327"/>
<path d="M1152.82 273.257C1125.82 273.257 1115.9 263.741 1114.3 258.174L1127.14 244.169L1154.96 239.322L1193.49 258.174C1191.17 262.663 1179.85 273.257 1152.82 273.257Z" fill="#222327"/>
<path fill-rule="evenodd" clip-rule="evenodd" d="M1156.56 375.604C1212.35 375.604 1253.25 359.828 1253.25 317.386C1253.25 264.292 1212.35 224.238 1156.56 224.238C1100.76 224.238 1060.79 268.018 1060.79 317.386C1060.79 359.828 1100.76 375.604 1156.56 375.604ZM1154.37 359.302C1195.41 359.302 1225.49 347.749 1225.49 316.669C1225.49 277.788 1195.41 248.456 1154.37 248.456C1113.33 248.456 1083.92 280.516 1083.92 316.669C1083.92 347.749 1113.33 359.302 1154.37 359.302Z" fill="white"/>
<path fill-rule="evenodd" clip-rule="evenodd" d="M1200.25 372.367C1187.32 375.216 1172.55 376.512 1156.56 376.512C1141.95 376.512 1128.42 375.43 1116.41 373.071C1111.09 385.882 1105.74 409.862 1105.74 426.269C1105.74 448.878 1131.81 456.574 1156.87 455.612C1181.92 454.65 1209.02 452.726 1209.53 426.269C1209.91 406.882 1205.34 383.862 1200.25 372.367Z" fill="white"/>
<path fill-rule="evenodd" clip-rule="evenodd" d="M1105.74 420.887C1116.7 424.844 1133.53 428.037 1157.53 427.312C1178.25 426.686 1195.79 424.101 1209.43 421.069C1209.15 402.636 1204.88 381.981 1200.14 371.291C1187.21 374.14 1172.44 375.436 1156.45 375.436C1141.84 375.436 1128.31 374.355 1116.3 371.995C1111.43 383.725 1106.53 404.817 1105.74 420.887Z" fill="#222327"/>
<path d="M1179.58 402.533C1182.03 380.353 1193.23 374.084 1203.75 371.032C1208.03 369.79 1214.99 369.955 1218.73 371.571C1223.27 373.527 1228.36 377.496 1232.11 386.653C1235.85 395.81 1240.58 409.535 1242.72 423.54L1242.75 423.727C1244.89 437.736 1248.15 459.091 1205.54 459.091C1170.42 459.091 1177.35 422.722 1179.58 402.533Z" fill="#3786E2"/>
<path d="M1198.01 416.844C1187.83 411.178 1184.12 398.306 1189.73 388.094L1190.24 387.17C1194.92 378.645 1204.81 374.464 1214.17 377.049C1227.21 380.648 1233.57 395.472 1227.21 407.424L1225.77 410.132C1220.62 419.505 1208.87 422.887 1199.53 417.687L1198.01 416.844Z" fill="#222327"/>
<path d="M1112.43 388.528C1110.72 390.683 1108.33 404.508 1107.08 410.613C1106.55 410.613 1103.33 409.715 1102.8 409.536C1102.26 403.072 1107.08 388.528 1112.43 388.528Z" fill="#1A1A1C"/>
<rect x="1139.72" y="380.988" width="5.35087" height="16.1596" rx="2.67543" fill="white"/>
<path fill-rule="evenodd" clip-rule="evenodd" d="M1139.72 393.915V394.472C1139.72 395.95 1140.92 397.148 1142.4 397.148C1143.87 397.148 1145.07 395.95 1145.07 394.472V393.915H1139.72Z" fill="#256FC5"/>
<rect x="1166.48" y="380.988" width="5.35087" height="16.1596" rx="2.67543" fill="white"/>
<path fill-rule="evenodd" clip-rule="evenodd" d="M1166.48 393.915V394.472C1166.48 395.95 1167.67 397.148 1169.15 397.148C1170.63 397.148 1171.83 395.95 1171.83 394.472V393.915H1166.48Z" fill="#256FC5"/>
<path d="M1156.84 457.476C1155.24 469.865 1150.96 472.02 1146.68 472.558L1148.28 462.324C1150.42 459.451 1157.67 451.067 1156.84 457.476Z" fill="white"/>
<path d="M1157.98 457.678C1159.59 470.067 1164.33 473.366 1173.97 473.366L1166.54 462.526C1164.4 459.653 1157.15 451.269 1157.98 457.678Z" fill="white"/>
<path fill-rule="evenodd" clip-rule="evenodd" d="M1221.44 433.267C1222.74 434.76 1223.48 436.754 1223.67 439.113C1224.03 443.702 1219.71 445.762 1213.64 446.245C1207.56 446.728 1203.08 445.369 1202.72 440.78C1202.55 438.622 1202.94 436.597 1203.93 434.912C1203.73 434.683 1203.57 434.419 1203.46 434.123C1202.89 432.616 1203.66 430.405 1204.97 429.904C1206.39 429.366 1207.79 430.073 1208.58 431.154C1209.69 430.742 1210.95 430.465 1212.39 430.351C1213.78 430.24 1215.05 430.29 1216.18 430.485C1216.73 429.169 1218.09 428.087 1219.67 428.417C1221.05 428.703 1222.15 430.766 1221.83 432.344C1221.76 432.682 1221.62 432.992 1221.44 433.267Z" fill="#2D68AE"/>
<path d="M1211.63 438.687C1211.73 440.019 1211.03 441.544 1209.89 441.635C1208.74 441.726 1206.81 440.788 1206.65 438.8C1206.51 436.932 1208.45 436.108 1210.54 436.286C1211.82 436.394 1211.52 437.356 1211.63 438.687Z" fill="#3475C2"/>
<path d="M1209.47 438.658C1209.49 438.919 1209.59 439.124 1209.98 439.093C1210.37 439.062 1210.43 438.845 1210.41 438.584C1210.39 438.323 1210.22 438.124 1209.91 438.149C1209.59 438.174 1209.45 438.398 1209.47 438.658Z" fill="white"/>
<path d="M1214.54 438.455C1214.65 439.787 1215.58 441.182 1216.72 441.091C1217.87 441 1219.63 439.768 1219.47 437.779C1219.33 435.911 1217.28 435.406 1215.24 435.911C1214 436.221 1214.44 437.124 1214.54 438.455Z" fill="#3475C2"/>
<path d="M1216.66 438.087C1216.69 438.348 1216.62 438.565 1216.23 438.597C1215.84 438.628 1215.75 438.423 1215.73 438.162C1215.71 437.901 1215.85 437.677 1216.16 437.652C1216.47 437.627 1216.64 437.826 1216.66 438.087Z" fill="white"/>
<rect width="23.965" height="44.0725" rx="6" transform="matrix(0.984609 0.174771 -0.172533 0.985004 1319.97 387.465)" fill="#DC9759"/>
<ellipse cx="38.0135" cy="38.2516" rx="38.0135" ry="38.2516" transform="matrix(0.984609 0.174771 -0.172533 0.985004 1304.08 329.747)" fill="#54B858"/>
<ellipse cx="38.0135" cy="38.2516" rx="38.0135" ry="38.2516" transform="matrix(0.984609 0.174771 -0.172533 0.985004 1304.08 329.747)" fill="url(#paint1_linear_8532_19717)"/>
<rect width="23.9789" height="44.0472" rx="6" transform="matrix(0.938958 0.344031 -0.340018 0.940419 1417.9 411.825)" fill="#DC9759"/>
<ellipse cx="38.0355" cy="38.2296" rx="38.0355" ry="38.2296" transform="matrix(0.938958 0.344031 -0.340018 0.940419 1412.2 352.206)" fill="#54B858"/>
<ellipse cx="38.0355" cy="38.2296" rx="38.0355" ry="38.2296" transform="matrix(0.938958 0.344031 -0.340018 0.940419 1412.2 352.206)" fill="url(#paint2_linear_8532_19717)"/>
</g>
</g>
<defs>
<linearGradient id="paint0_linear_8532_19717" x1="1142" y1="403.479" x2="1142" y2="696.245" gradientUnits="userSpaceOnUse">
<stop stop-color="#E18745"/>
<stop offset="1" stop-color="#D7A37E" stop-opacity="0"/>
</linearGradient>
<linearGradient id="paint1_linear_8532_19717" x1="38.0135" y1="0" x2="38.0135" y2="76.5031" gradientUnits="userSpaceOnUse">
<stop stop-color="#32A737"/>
<stop offset="1" stop-color="#54B858" stop-opacity="0"/>
</linearGradient>
<linearGradient id="paint2_linear_8532_19717" x1="38.0355" y1="0" x2="38.0355" y2="76.4593" gradientUnits="userSpaceOnUse">
<stop stop-color="#32A737"/>
<stop offset="1" stop-color="#54B858" stop-opacity="0"/>
</linearGradient>
<clipPath id="clip0_8532_19717">
<rect width="1920" height="540" fill="white"/>
</clipPath>
<clipPath id="clip1_8532_19717">
<rect width="746" height="340" fill="white" transform="translate(769 200)"/>
</clipPath>
</defs>
</svg>
